<svg width="146" height="32" viewBox="0 0 146 32" fill="none" xmlns="http://www.w3.org/2000/svg">
<path d="M1.4141e-05 -2.01927e-06L3.16073 -1.46663e-06L3.16073 3.16071L1.35884e-05 3.16071L1.4141e-05 -2.01927e-06ZM3.16073 -1.46663e-06L6.32144 -9.13994e-07L6.32144 3.16071L3.16073 3.16071L3.16073 -1.46663e-06ZM6.32144 -9.13994e-07L9.48216 -3.61358e-07L9.48216 3.16071L6.32144 3.16071L6.32144 -9.13994e-07ZM9.48216 -3.61358e-07L12.6429 1.91279e-07L12.6429 3.16071L9.48216 3.16071L9.48216 -3.61358e-07ZM12.6429 1.91279e-07L15.8036 7.43916e-07L15.8036 3.16071L12.6429 3.16071L12.6429 1.91279e-07ZM15.8036 7.43916e-07L18.9643 1.29655e-06L18.9643 3.16071L15.8036 3.16071L15.8036 7.43916e-07ZM15.8036 3.16071L18.9643 3.16071L18.9643 6.32143L15.8036 6.32143L15.8036 3.16071ZM12.6429 3.16071L15.8036 3.16071L15.8036 6.32143L12.6429 6.32143L12.6429 3.16071ZM9.48216 3.16071L12.6429 3.16071L12.6429 6.32143L9.48216 6.32143L9.48216 3.16071ZM6.32144 3.16071L9.48216 3.16071L9.48216 6.32143L6.32144 6.32143L6.32144 3.16071ZM3.16073 3.16071L6.32144 3.16071L6.32144 6.32143L3.16073 6.32143L3.16073 3.16071ZM1.35884e-05 3.16071L3.16073 3.16071L3.16073 6.32143L1.30358e-05 6.32143L1.35884e-05 3.16071ZM18.9643 3.16071L22.125 3.16071L22.125 6.32143L18.9643 6.32143L18.9643 3.16071ZM15.8036 6.32143L18.9643 6.32143L18.9643 9.48214L15.8036 9.48214L15.8036 6.32143ZM18.9643 6.32143L22.125 6.32143L22.125 9.48214L18.9643 9.48214L18.9643 6.32143ZM18.9643 9.48214L22.125 9.48214L22.125 12.6429L18.9643 12.6429L18.9643 9.48214ZM18.9643 12.6429L22.125 12.6429L22.125 15.8036L18.9643 15.8036L18.9643 12.6429ZM15.8036 12.6429L18.9643 12.6429L18.9643 15.8036L15.8036 15.8036L15.8036 12.6429ZM15.8036 9.48214L18.9643 9.48214L18.9643 12.6429L15.8036 12.6429L15.8036 9.48214ZM15.8036 15.8036L18.9643 15.8036L18.9643 18.9643L15.8036 18.9643L15.8036 15.8036ZM15.8036 18.9643L18.9643 18.9643L18.9643 22.125L15.8036 22.125L15.8036 18.9643ZM12.6429 18.9643L15.8036 18.9643L15.8036 22.125L12.6429 22.125L12.6429 18.9643ZM12.6429 15.8036L15.8036 15.8036L15.8036 18.9643L12.6429 18.9643L12.6429 15.8036ZM9.48215 15.8036L12.6429 15.8036L12.6429 18.9643L9.48215 18.9643L9.48215 15.8036ZM9.48215 18.9643L12.6429 18.9643L12.6429 22.125L9.48215 22.125L9.48215 18.9643ZM6.32144 18.9643L9.48215 18.9643L9.48215 22.125L6.32144 22.125L6.32144 18.9643ZM6.32144 15.8036L9.48215 15.8036L9.48215 18.9643L6.32144 18.9643L6.32144 15.8036ZM3.16073 15.8036L6.32144 15.8036L6.32144 18.9643L3.16073 18.9643L3.16073 15.8036ZM1.13778e-05 15.8036L3.16073 15.8036L3.16073 18.9643L1.08252e-05 18.9643L1.13778e-05 15.8036ZM1.08252e-05 18.9643L3.16073 18.9643L3.16072 22.125L1.02726e-05 22.125L1.08252e-05 18.9643ZM3.16073 18.9643L6.32144 18.9643L6.32144 22.125L3.16072 22.125L3.16073 18.9643ZM1.30358e-05 6.32143L3.16073 6.32143L3.16073 9.48214L1.24831e-05 9.48214L1.30358e-05 6.32143ZM3.16073 6.32143L6.32144 6.32143L6.32144 9.48214L3.16073 9.48214L3.16073 6.32143ZM3.16073 9.48214L6.32144 9.48214L6.32144 12.6429L3.16073 12.6429L3.16073 9.48214ZM3.16073 12.6429L6.32144 12.6429L6.32144 15.8036L3.16073 15.8036L3.16073 12.6429ZM1.24831e-05 9.48214L3.16073 9.48214L3.16073 12.6429L1.19305e-05 12.6429L1.24831e-05 9.48214ZM1.19305e-05 12.6429L3.16073 12.6429L3.16073 15.8036L1.13778e-05 15.8036L1.19305e-05 12.6429ZM1.02726e-05 22.125L3.16072 22.125L3.16072 25.2857L9.71993e-06 25.2857L1.02726e-05 22.125ZM3.16072 22.125L6.32144 22.125L6.32144 25.2857L3.16072 25.2857L3.16072 22.125ZM3.16072 25.2857L6.32144 25.2857L6.32144 28.4464L3.16072 28.4464L3.16072 25.2857ZM3.16072 28.4464L6.32144 28.4464L6.32144 31.6071L3.16072 31.6071L3.16072 28.4464ZM9.16729e-06 28.4464L3.16072 28.4464L3.16072 31.6071L8.61466e-06 31.6071L9.16729e-06 28.4464ZM9.71993e-06 25.2857L3.16072 25.2857L3.16072 28.4464L9.16729e-06 28.4464L9.71993e-06 25.2857ZM18.9643 15.8036L22.125 15.8036L22.125 18.9643L18.9643 18.9643L18.9643 15.8036ZM31.6154 3.16072L34.7761 3.16072L34.7761 6.32143L31.6154 6.32143L31.6154 3.16072ZM34.7761 3.16072L37.9368 3.16072L37.9368 6.32143L34.7761 6.32143L34.7761 3.16072ZM34.7761 4.06118e-06L37.9368 4.61381e-06L37.9368 3.16072L34.7761 3.16072L34.7761 4.06118e-06ZM37.9368 3.16072L41.0975 3.16072L41.0975 6.32143L37.9368 6.32143L37.9368 3.16072ZM37.9368 6.32143L41.0975 6.32143L41.0975 9.48215L37.9368 9.48215L37.9368 6.32143ZM41.0975 6.32143L44.2582 6.32143L44.2582 9.48215L41.0975 9.48215L41.0975 6.32143ZM34.7761 6.32143L37.9368 6.32143L37.9368 9.48215L34.7761 9.48215L34.7761 6.32143ZM31.6154 6.32143L34.7761 6.32143L34.7761 9.48215L31.6154 9.48215L31.6154 6.32143ZM28.4547 6.32143L31.6154 6.32143L31.6154 9.48215L28.4547 9.48214L28.4547 6.32143ZM28.4547 9.48214L31.6154 9.48215L31.6154 12.6429L28.4547 12.6429L28.4547 9.48214ZM25.294 9.48214L28.4547 9.48214L28.4547 12.6429L25.294 12.6429L25.294 9.48214ZM31.6154 9.48215L34.7761 9.48215L34.7761 12.6429L31.6154 12.6429L31.6154 9.48215ZM28.4547 12.6429L31.6154 12.6429L31.6154 15.8036L28.4547 15.8036L28.4547 12.6429ZM28.4547 15.8036L31.6154 15.8036L31.6154 18.9643L28.4547 18.9643L28.4547 15.8036ZM28.4547 18.9643L31.6154 18.9643L31.6154 22.125L28.4547 22.125L28.4547 18.9643ZM31.6154 18.9643L34.7761 18.9643L34.7761 22.125L31.6154 22.125L31.6154 18.9643ZM34.7761 18.9643L37.9368 18.9643L37.9368 22.125L34.7761 22.125L34.7761 18.9643ZM37.9368 18.9643L41.0975 18.9643L41.0975 22.125L37.9368 22.125L37.9368 18.9643ZM41.0975 18.9643L44.2582 18.9643L44.2582 22.125L41.0975 22.125L41.0975 18.9643ZM44.2582 18.9643L47.419 18.9643L47.419 22.125L44.2582 22.125L44.2582 18.9643ZM44.2582 15.8036L47.419 15.8036L47.419 18.9643L44.2582 18.9643L44.2582 15.8036ZM44.2582 12.6429L47.419 12.6429L47.419 15.8036L44.2582 15.8036L44.2582 12.6429ZM44.2582 9.48215L47.419 9.48215L47.419 12.6429L44.2582 12.6429L44.2582 9.48215ZM41.0975 9.48215L44.2582 9.48215L44.2582 12.6429L41.0975 12.6429L41.0975 9.48215ZM37.9368 9.48215L41.0975 9.48215L41.0975 12.6429L37.9368 12.6429L37.9368 9.48215ZM41.0975 12.6429L44.2582 12.6429L44.2582 15.8036L41.0975 15.8036L41.0975 12.6429ZM41.0975 15.8036L44.2582 15.8036L44.2582 18.9643L41.0975 18.9643L41.0975 15.8036ZM41.0975 22.125L44.2582 22.125L44.2582 25.2857L41.0975 25.2857L41.0975 22.125ZM44.2582 22.125L47.419 22.125L47.419 25.2857L44.2582 25.2857L44.2582 22.125ZM44.2582 25.2857L47.419 25.2857L47.419 28.4464L44.2582 28.4464L44.2582 25.2857ZM44.2582 28.4464L47.419 28.4464L47.419 31.6071L44.2582 31.6071L44.2582 28.4464ZM41.0975 28.4464L44.2582 28.4464L44.2582 31.6071L41.0975 31.6071L41.0975 28.4464ZM41.0975 25.2857L44.2582 25.2857L44.2582 28.4464L41.0975 28.4464L41.0975 25.2857ZM37.9368 22.125L41.0975 22.125L41.0975 25.2857L37.9368 25.2857L37.9368 22.125ZM34.7761 22.125L37.9368 22.125L37.9368 25.2857L34.7761 25.2857L34.7761 22.125ZM31.6154 22.125L34.7761 22.125L34.7761 25.2857L31.6154 25.2857L31.6154 22.125ZM28.4547 22.125L31.6154 22.125L31.6154 25.2857L28.4547 25.2857L28.4547 22.125ZM28.4547 25.2857L31.6154 25.2857L31.6154 28.4464L28.4547 28.4464L28.4547 25.2857ZM28.4547 28.4464L31.6154 28.4464L31.6154 31.6071L28.4547 31.6071L28.4547 28.4464ZM25.294 28.4464L28.4547 28.4464L28.4547 31.6071L25.294 31.6071L25.294 28.4464ZM25.294 25.2857L28.4547 25.2857L28.4547 28.4464L25.294 28.4464L25.294 25.2857ZM25.294 22.125L28.4547 22.125L28.4547 25.2857L25.294 25.2857L25.294 22.125ZM25.294 18.9643L28.4547 18.9643L28.4547 22.125L25.294 22.125L25.294 18.9643ZM25.294 15.8036L28.4547 15.8036L28.4547 18.9643L25.294 18.9643L25.294 15.8036ZM25.294 12.6429L28.4547 12.6429L28.4547 15.8036L25.294 15.8036L25.294 12.6429ZM53.7486 15.8036L56.9093 15.8036L56.9093 18.9643L53.7486 18.9643L53.7486 15.8036ZM56.9093 15.8036L60.07 15.8036L60.07 18.9643L56.9093 18.9643L56.9093 15.8036ZM60.07 15.8036L63.2308 15.8036L63.2308 18.9643L60.07 18.9643L60.07 15.8036ZM63.2308 15.8036L66.3915 15.8036L66.3915 18.9643L63.2308 18.9643L63.2308 15.8036ZM56.9093 18.9643L60.07 18.9643L60.07 22.125L56.9093 22.125L56.9093 18.9643ZM53.7486 18.9643L56.9093 18.9643L56.9093 22.125L53.7486 22.125L53.7486 18.9643ZM60.07 18.9643L63.2308 18.9643L63.2308 22.125L60.07 22.125L60.07 18.9643ZM63.2308 18.9643L66.3915 18.9643L66.3915 22.125L63.2308 22.125L63.2308 18.9643ZM66.3915 22.125L69.5522 22.125L69.5522 25.2857L66.3915 25.2857L66.3915 22.125ZM69.5522 18.9643L72.7129 18.9643L72.7129 22.125L69.5522 22.125L69.5522 18.9643ZM66.3915 18.9643L69.5522 18.9643L69.5522 22.125L66.3915 22.125L66.3915 18.9643ZM69.5522 22.125L72.7129 22.125L72.7129 25.2857L69.5522 25.2857L69.5522 22.125ZM66.3915 25.2857L69.5522 25.2857L69.5522 28.4464L66.3915 28.4464L66.3915 25.2857ZM69.5522 25.2857L72.7129 25.2857L72.7129 28.4464L69.5522 28.4464L69.5522 25.2857ZM69.5522 28.4464L72.7129 28.4464L72.7129 31.6072L69.5522 31.6072L69.5522 28.4464ZM66.3915 28.4464L69.5522 28.4464L69.5522 31.6072L66.3915 31.6072L66.3915 28.4464ZM53.7486 28.4464L56.9093 28.4464L56.9093 31.6071L53.7486 31.6071L53.7486 28.4464ZM50.5879 28.4464L53.7486 28.4464L53.7486 31.6071L50.5879 31.6071L50.5879 28.4464ZM50.5879 25.2857L53.7486 25.2857L53.7486 28.4464L50.5879 28.4464L50.5879 25.2857ZM53.7486 25.2857L56.9093 25.2857L56.9093 28.4464L53.7486 28.4464L53.7486 25.2857ZM53.7486 22.125L56.9093 22.125L56.9093 25.2857L53.7486 25.2857L53.7486 22.125ZM50.5879 22.125L53.7486 22.125L53.7486 25.2857L50.5879 25.2857L50.5879 22.125ZM50.5879 18.9643L53.7486 18.9643L53.7486 22.125L50.5879 22.125L50.5879 18.9643ZM50.5879 15.8036L53.7486 15.8036L53.7486 18.9643L50.5879 18.9643L50.5879 15.8036ZM50.5879 12.6429L53.7486 12.6429L53.7486 15.8036L50.5879 15.8036L50.5879 12.6429ZM53.7486 12.6429L56.9093 12.6429L56.9093 15.8036L53.7486 15.8036L53.7486 12.6429ZM50.5879 6.8258e-06L53.7486 7.37844e-06L53.7486 3.16072L50.5879 3.16072L50.5879 6.8258e-06ZM53.7486 7.37844e-06L56.9093 7.93107e-06L56.9093 3.16072L53.7486 3.16072L53.7486 7.37844e-06ZM56.9093 7.93107e-06L60.07 8.48371e-06L60.07 3.16072L56.9093 3.16072L56.9093 7.93107e-06ZM60.07 8.48371e-06L63.2308 9.03635e-06L63.2308 3.16072L60.07 3.16072L60.07 8.48371e-06ZM63.2308 9.03635e-06L66.3915 9.58898e-06L66.3915 3.16072L63.2308 3.16072L63.2308 9.03635e-06ZM66.3915 9.58898e-06L69.5522 1.01416e-05L69.5522 3.16072L66.3915 3.16072L66.3915 9.58898e-06ZM66.3915 3.16072L69.5522 3.16072L69.5522 6.32144L66.3915 6.32144L66.3915 3.16072ZM63.2308 3.16072L66.3915 3.16072L66.3915 6.32144L63.2308 6.32144L63.2308 3.16072ZM60.07 3.16072L63.2308 3.16072L63.2308 6.32144L60.07 6.32144L60.07 3.16072ZM56.9093 3.16072L60.07 3.16072L60.07 6.32144L56.9093 6.32144L56.9093 3.16072ZM53.7486 3.16072L56.9093 3.16072L56.9093 6.32144L53.7486 6.32143L53.7486 3.16072ZM50.5879 3.16072L53.7486 3.16072L53.7486 6.32143L50.5879 6.32143L50.5879 3.16072ZM50.5879 6.32143L53.7486 6.32143L53.7486 9.48215L50.5879 9.48215L50.5879 6.32143ZM50.5879 9.48215L53.7486 9.48215L53.7486 12.6429L50.5879 12.6429L50.5879 9.48215ZM53.7486 9.48215L56.9093 9.48215L56.9093 12.6429L53.7486 12.6429L53.7486 9.48215ZM53.7486 6.32143L56.9093 6.32144L56.9093 9.48215L53.7486 9.48215L53.7486 6.32143ZM66.3915 6.32144L69.5522 6.32144L69.5522 9.48215L66.3915 9.48215L66.3915 6.32144ZM69.5522 6.32144L72.7129 6.32144L72.7129 9.48215L69.5522 9.48215L69.5522 6.32144ZM69.5522 3.16072L72.7129 3.16072L72.7129 6.32144L69.5522 6.32144L69.5522 3.16072ZM69.5522 9.48215L72.7129 9.48215L72.7129 12.6429L69.5522 12.6429L69.5522 9.48215ZM66.3915 9.48215L69.5522 9.48215L69.5522 12.6429L66.3915 12.6429L66.3915 9.48215ZM66.3915 12.6429L69.5522 12.6429L69.5522 15.8036L66.3915 15.8036L66.3915 12.6429ZM69.5522 12.6429L72.7129 12.6429L72.7129 15.8036L69.5522 15.8036L69.5522 12.6429ZM66.3915 15.8036L69.5522 15.8036L69.5522 18.9643L66.3915 18.9643L66.3915 15.8036ZM94.8461 6.32144L98.0068 6.32144L98.0068 9.48216L94.8461 9.48216L94.8461 6.32144ZM91.6854 6.32144L94.8461 6.32144L94.8461 9.48216L91.6854 9.48216L91.6854 6.32144ZM91.6854 3.16073L94.8461 3.16073L94.8461 6.32144L91.6854 6.32144L91.6854 3.16073ZM94.8461 3.16073L98.0068 3.16073L98.0068 6.32144L94.8461 6.32144L94.8461 3.16073ZM91.6854 1.40115e-05L94.8461 1.45642e-05L94.8461 3.16073L91.6854 3.16073L91.6854 1.40115e-05ZM88.5247 1.34589e-05L91.6854 1.40115e-05L91.6854 3.16073L88.5247 3.16073L88.5247 1.34589e-05ZM88.5247 3.16073L91.6854 3.16073L91.6854 6.32144L88.5247 6.32144L88.5247 3.16073ZM85.364 3.16073L88.5247 3.16073L88.5247 6.32144L85.364 6.32144L85.364 3.16073ZM82.2033 3.16073L85.364 3.16073L85.364 6.32144L82.2033 6.32144L82.2033 3.16073ZM82.2033 1.23536e-05L85.364 1.29062e-05L85.364 3.16073L82.2033 3.16073L82.2033 1.23536e-05ZM79.0426 1.1801e-05L82.2033 1.23536e-05L82.2033 3.16073L79.0426 3.16072L79.0426 1.1801e-05ZM85.364 1.29062e-05L88.5247 1.34589e-05L88.5247 3.16073L85.364 3.16073L85.364 1.29062e-05ZM79.0426 3.16072L82.2033 3.16073L82.2033 6.32144L79.0426 6.32144L79.0426 3.16072ZM75.8818 3.16072L79.0426 3.16072L79.0426 6.32144L75.8818 6.32144L75.8818 3.16072ZM75.8818 6.32144L79.0426 6.32144L79.0426 9.48215L75.8818 9.48215L75.8818 6.32144ZM79.0426 6.32144L82.2033 6.32144L82.2033 9.48215L79.0426 9.48215L79.0426 6.32144ZM79.0426 9.48215L82.2033 9.48215L82.2033 12.6429L79.0426 12.6429L79.0426 9.48215ZM79.0426 12.6429L82.2033 12.6429L82.2033 15.8036L79.0426 15.8036L79.0426 12.6429ZM75.8818 12.6429L79.0426 12.6429L79.0426 15.8036L75.8818 15.8036L75.8818 12.6429ZM75.8818 9.48215L79.0426 9.48215L79.0426 12.6429L75.8818 12.6429L75.8818 9.48215ZM79.0426 15.8036L82.2033 15.8036L82.2033 18.9643L79.0426 18.9643L79.0426 15.8036ZM82.2033 15.8036L85.364 15.8036L85.364 18.9643L82.2033 18.9643L82.2033 15.8036ZM82.2033 12.6429L85.364 12.6429L85.364 15.8036L82.2033 15.8036L82.2033 12.6429ZM85.364 12.6429L88.5247 12.6429L88.5247 15.8036L85.364 15.8036L85.364 12.6429ZM88.5247 12.6429L91.6854 12.6429L91.6854 15.8036L88.5247 15.8036L88.5247 12.6429ZM91.6854 12.6429L94.8461 12.6429L94.8461 15.8036L91.6854 15.8036L91.6854 12.6429ZM91.6854 15.8036L94.8461 15.8036L94.8461 18.9643L91.6854 18.9643L91.6854 15.8036ZM88.5247 15.8036L91.6854 15.8036L91.6854 18.9643L88.5247 18.9643L88.5247 15.8036ZM85.364 15.8036L88.5247 15.8036L88.5247 18.9643L85.364 18.9643L85.364 15.8036ZM94.8461 15.8036L98.0068 15.8036L98.0068 18.9643L94.8461 18.9643L94.8461 15.8036ZM94.8461 18.9643L98.0068 18.9643L98.0068 22.125L94.8461 22.125L94.8461 18.9643ZM91.6854 18.9643L94.8461 18.9643L94.8461 22.125L91.6854 22.125L91.6854 18.9643ZM88.5247 25.2857L91.6854 25.2857L91.6854 28.4464L88.5247 28.4464L88.5247 25.2857ZM91.6854 25.2857L94.8461 25.2857L94.8461 28.4464L91.6854 28.4464L91.6854 25.2857ZM91.6854 22.125L94.8461 22.125L94.8461 25.2857L91.6854 25.2857L91.6854 22.125ZM94.8461 22.125L98.0068 22.125L98.0068 25.2857L94.8461 25.2857L94.8461 22.125ZM94.8461 25.2857L98.0068 25.2857L98.0068 28.4464L94.8461 28.4464L94.8461 25.2857ZM91.6854 28.4464L94.8461 28.4464L94.8461 31.6072L91.6854 31.6072L91.6854 28.4464ZM88.5247 28.4464L91.6854 28.4464L91.6854 31.6072L88.5247 31.6072L88.5247 28.4464ZM85.364 28.4464L88.5247 28.4464L88.5247 31.6072L85.364 31.6072L85.364 28.4464ZM82.2033 28.4464L85.364 28.4464L85.364 31.6072L82.2033 31.6072L82.2033 28.4464ZM79.0426 28.4464L82.2033 28.4464L82.2033 31.6072L79.0426 31.6072L79.0426 28.4464ZM79.0426 25.2857L82.2033 25.2857L82.2033 28.4464L79.0426 28.4464L79.0426 25.2857ZM82.2033 25.2857L85.364 25.2857L85.364 28.4464L82.2033 28.4464L82.2033 25.2857ZM85.364 25.2857L88.5247 25.2857L88.5247 28.4464L85.364 28.4464L85.364 25.2857ZM75.8818 25.2857L79.0426 25.2857L79.0426 28.4464L75.8818 28.4464L75.8818 25.2857ZM75.8818 22.125L79.0426 22.125L79.0426 25.2857L75.8818 25.2857L75.8818 22.125ZM79.0426 22.125L82.2033 22.125L82.2033 25.2857L79.0426 25.2857L79.0426 22.125ZM101.176 1.56709e-05L104.337 1.62235e-05L104.337 3.16073L101.176 3.16073L101.176 1.56709e-05ZM104.337 1.62235e-05L107.497 1.67761e-05L107.497 3.16073L104.337 3.16073L104.337 1.62235e-05ZM104.337 3.16073L107.497 3.16073L107.497 6.32144L104.337 6.32144L104.337 3.16073ZM104.337 6.32144L107.497 6.32144L107.497 9.48216L104.337 9.48216L104.337 6.32144ZM104.337 9.48216L107.497 9.48216L107.497 12.6429L104.337 12.6429L104.337 9.48216ZM101.176 9.48216L104.337 9.48216L104.337 12.6429L101.176 12.6429L101.176 9.48216ZM101.176 6.32144L104.337 6.32144L104.337 9.48216L101.176 9.48216L101.176 6.32144ZM101.176 3.16073L104.337 3.16073L104.337 6.32144L101.176 6.32144L101.176 3.16073ZM101.176 12.6429L104.337 12.6429L104.337 15.8036L101.176 15.8036L101.176 12.6429ZM101.176 15.8036L104.337 15.8036L104.337 18.9643L101.176 18.9643L101.176 15.8036ZM101.176 18.9643L104.337 18.9643L104.337 22.125L101.176 22.125L101.176 18.9643ZM104.337 15.8036L107.497 15.8036L107.497 18.9643L104.337 18.9643L104.337 15.8036ZM104.337 12.6429L107.497 12.6429L107.497 15.8036L104.337 15.8036L104.337 12.6429ZM104.337 18.9643L107.497 18.9643L107.497 22.125L104.337 22.125L104.337 18.9643ZM104.337 22.125L107.497 22.125L107.497 25.2857L104.337 25.2857L104.337 22.125ZM101.176 25.2857L104.337 25.2857L104.337 28.4464L101.176 28.4464L101.176 25.2857ZM101.176 22.125L104.337 22.125L104.337 25.2857L101.176 25.2857L101.176 22.125ZM101.176 28.4464L104.337 28.4464L104.337 31.6072L101.176 31.6072L101.176 28.4464ZM104.337 28.4464L107.497 28.4464L107.497 31.6072L104.337 31.6072L104.337 28.4464ZM104.337 25.2857L107.497 25.2857L107.497 28.4464L104.337 28.4464L104.337 25.2857ZM107.497 28.4464L110.658 28.4464L110.658 31.6072L107.497 31.6072L107.497 28.4464ZM110.658 28.4464L113.819 28.4464L113.819 31.6072L110.658 31.6072L110.658 28.4464ZM113.819 28.4464L116.979 28.4464L116.979 31.6072L113.819 31.6072L113.819 28.4464ZM113.819 25.2857L116.979 25.2857L116.979 28.4464L113.819 28.4464L113.819 25.2857ZM110.658 25.2857L113.819 25.2857L113.819 28.4464L110.658 28.4464L110.658 25.2857ZM107.497 25.2857L110.658 25.2857L110.658 28.4464L107.497 28.4464L107.497 25.2857ZM107.497 1.67761e-05L110.658 1.73288e-05L110.658 3.16073L107.497 3.16073L107.497 1.67761e-05ZM110.658 1.73288e-05L113.819 1.78814e-05L113.819 3.16073L110.658 3.16073L110.658 1.73288e-05ZM113.819 1.78814e-05L116.979 1.84341e-05L116.979 3.16073L113.819 3.16073L113.819 1.78814e-05ZM116.979 1.84341e-05L120.14 1.89867e-05L120.14 3.16073L116.979 3.16073L116.979 1.84341e-05ZM113.819 3.16073L116.979 3.16073L116.979 6.32145L113.819 6.32145L113.819 3.16073ZM110.658 3.16073L113.819 3.16073L113.819 6.32145L110.658 6.32144L110.658 3.16073ZM107.497 3.16073L110.658 3.16073L110.658 6.32144L107.497 6.32144L107.497 3.16073ZM107.497 15.8036L110.658 15.8036L110.658 18.9643L107.497 18.9643L107.497 15.8036ZM110.658 12.6429L113.819 12.6429L113.819 15.8036L110.658 15.8036L110.658 12.6429ZM107.497 12.6429L110.658 12.6429L110.658 15.8036L107.497 15.8036L107.497 12.6429ZM110.658 15.8036L113.819 15.8036L113.819 18.9643L110.658 18.9643L110.658 15.8036ZM116.979 3.16073L120.14 3.16073L120.14 6.32145L116.979 6.32145L116.979 3.16073ZM116.979 25.2857L120.14 25.2857L120.14 28.4464L116.979 28.4464L116.979 25.2857ZM116.979 28.4464L120.14 28.4464L120.14 31.6072L116.979 31.6072L116.979 28.4464ZM113.819 12.6429L116.979 12.6429L116.979 15.8036L113.819 15.8036L113.819 12.6429ZM113.819 15.8036L116.979 15.8036L116.979 18.9643L113.819 18.9643L113.819 15.8036ZM126.462 15.8036L129.622 15.8036L129.622 18.9643L126.462 18.9643L126.462 15.8036ZM129.622 15.8036L132.783 15.8036L132.783 18.9643L129.622 18.9643L129.622 15.8036ZM132.783 15.8036L135.944 15.8036L135.944 18.9643L132.783 18.9643L132.783 15.8036ZM135.944 15.8036L139.104 15.8036L139.104 18.9643L135.944 18.9643L135.944 15.8036ZM129.622 18.9643L132.783 18.9643L132.783 22.125L129.622 22.125L129.622 18.9643ZM126.462 18.9643L129.622 18.9643L129.622 22.125L126.462 22.125L126.462 18.9643ZM132.783 18.9643L135.944 18.9643L135.944 22.125L132.783 22.125L132.783 18.9643ZM135.944 18.9643L139.104 18.9643L139.104 22.125L135.944 22.125L135.944 18.9643ZM139.104 22.125L142.265 22.125L142.265 25.2857L139.104 25.2857L139.104 22.125ZM142.265 18.9643L145.426 18.9643L145.426 22.125L142.265 22.125L142.265 18.9643ZM139.104 18.9643L142.265 18.9643L142.265 22.125L139.104 22.125L139.104 18.9643ZM142.265 22.125L145.426 22.125L145.426 25.2857L142.265 25.2857L142.265 22.125ZM139.104 25.2857L142.265 25.2857L142.265 28.4465L139.104 28.4464L139.104 25.2857ZM142.265 25.2857L145.426 25.2857L145.426 28.4465L142.265 28.4465L142.265 25.2857ZM142.265 28.4465L145.426 28.4465L145.426 31.6072L142.265 31.6072L142.265 28.4465ZM139.104 28.4464L142.265 28.4465L142.265 31.6072L139.104 31.6072L139.104 28.4464ZM126.462 28.4464L129.622 28.4464L129.622 31.6072L126.462 31.6072L126.462 28.4464ZM123.301 28.4464L126.462 28.4464L126.462 31.6072L123.301 31.6072L123.301 28.4464ZM123.301 25.2857L126.462 25.2857L126.462 28.4464L123.301 28.4464L123.301 25.2857ZM126.462 25.2857L129.622 25.2857L129.622 28.4464L126.462 28.4464L126.462 25.2857ZM126.462 22.125L129.622 22.125L129.622 25.2857L126.462 25.2857L126.462 22.125ZM123.301 22.125L126.462 22.125L126.462 25.2857L123.301 25.2857L123.301 22.125ZM123.301 18.9643L126.462 18.9643L126.462 22.125L123.301 22.125L123.301 18.9643ZM123.301 15.8036L126.462 15.8036L126.462 18.9643L123.301 18.9643L123.301 15.8036ZM123.301 12.6429L126.462 12.6429L126.462 15.8036L123.301 15.8036L123.301 12.6429ZM126.462 12.6429L129.622 12.6429L129.622 15.8036L126.462 15.8036L126.462 12.6429ZM123.301 1.95393e-05L126.462 2.0092e-05L126.462 3.16073L123.301 3.16073L123.301 1.95393e-05ZM126.462 2.0092e-05L129.622 2.06446e-05L129.622 3.16073L126.462 3.16073L126.462 2.0092e-05ZM129.622 2.06446e-05L132.783 2.11972e-05L132.783 3.16073L129.622 3.16073L129.622 2.06446e-05ZM132.783 2.11972e-05L135.944 2.17499e-05L135.944 3.16073L132.783 3.16073L132.783 2.11972e-05ZM135.944 2.17499e-05L139.104 2.23025e-05L139.104 3.16074L135.944 3.16073L135.944 2.17499e-05ZM139.104 2.23025e-05L142.265 2.28551e-05L142.265 3.16074L139.104 3.16074L139.104 2.23025e-05ZM139.104 3.16074L142.265 3.16074L142.265 6.32145L139.104 6.32145L139.104 3.16074ZM135.944 3.16073L139.104 3.16074L139.104 6.32145L135.944 6.32145L135.944 3.16073ZM132.783 3.16073L135.944 3.16073L135.944 6.32145L132.783 6.32145L132.783 3.16073ZM129.622 3.16073L132.783 3.16073L132.783 6.32145L129.622 6.32145L129.622 3.16073ZM126.462 3.16073L129.622 3.16073L129.622 6.32145L126.462 6.32145L126.462 3.16073ZM123.301 3.16073L126.462 3.16073L126.462 6.32145L123.301 6.32145L123.301 3.16073ZM123.301 6.32145L126.462 6.32145L126.462 9.48216L123.301 9.48216L123.301 6.32145ZM123.301 9.48216L126.462 9.48216L126.462 12.6429L123.301 12.6429L123.301 9.48216ZM126.462 9.48216L129.622 9.48216L129.622 12.6429L126.462 12.6429L126.462 9.48216ZM126.462 6.32145L129.622 6.32145L129.622 9.48216L126.462 9.48216L126.462 6.32145ZM139.104 6.32145L142.265 6.32145L142.265 9.48216L139.104 9.48216L139.104 6.32145ZM142.265 6.32145L145.426 6.32145L145.426 9.48217L142.265 9.48216L142.265 6.32145ZM142.265 3.16074L145.426 3.16074L145.426 6.32145L142.265 6.32145L142.265 3.16074ZM142.265 9.48216L145.426 9.48217L145.426 12.6429L142.265 12.6429L142.265 9.48216ZM139.104 9.48216L142.265 9.48216L142.265 12.6429L139.104 12.6429L139.104 9.48216ZM139.104 12.6429L142.265 12.6429L142.265 15.8036L139.104 15.8036L139.104 12.6429ZM142.265 12.6429L145.426 12.6429L145.426 15.8036L142.265 15.8036L142.265 12.6429ZM139.104 15.8036L142.265 15.8036L142.265 18.9643L139.104 18.9643L139.104 15.8036Z" fill="#F4C014"/>
</svg>
