<svg width="52" height="28" viewBox="0 0 52 28" fill="none" xmlns="http://www.w3.org/2000/svg">
<path d="M-9.24184e-07 5.28571L1.71428 5.28571L1.71428 7L-1.22392e-06 7L-9.24184e-07 5.28571ZM1.71428 5.28571L3.42857 5.28571L3.42857 7L1.71428 7L1.71428 5.28571ZM1.71428 7L3.42857 7L3.42857 8.71429L1.71428 8.71429L1.71428 7ZM1.71428 8.71429L3.42857 8.71429L3.42857 10.4286L1.71428 10.4286L1.71428 8.71429ZM1.71428 10.4286L3.42857 10.4286L3.42857 12.1429L1.71428 12.1429L1.71428 10.4286ZM-1.52365e-06 8.71429L1.71428 8.71429L1.71428 10.4286L-1.82339e-06 10.4286L-1.52365e-06 8.71429ZM-1.22392e-06 7L1.71428 7L1.71428 8.71429L-1.52365e-06 8.71429L-1.22392e-06 7ZM-1.82339e-06 10.4286L1.71428 10.4286L1.71428 12.1429L-2.12312e-06 12.1429L-1.82339e-06 10.4286ZM-2.12312e-06 12.1429L1.71428 12.1429L1.71428 13.8571L-2.42286e-06 13.8571L-2.12312e-06 12.1429ZM1.71428 12.1429L3.42857 12.1429L3.42857 13.8571L1.71428 13.8571L1.71428 12.1429ZM1.71428 13.8571L3.42857 13.8571L3.42857 15.5714L1.71428 15.5714L1.71428 13.8571ZM3.42857 13.8571L5.14285 13.8571L5.14285 15.5714L3.42857 15.5714L3.42857 13.8571ZM3.42857 15.5714L5.14285 15.5714L5.14285 17.2857L3.42857 17.2857L3.42857 15.5714ZM5.14285 15.5714L6.85714 15.5714L6.85714 17.2857L5.14285 17.2857L5.14285 15.5714ZM6.85714 15.5714L8.57143 15.5714L8.57143 17.2857L6.85714 17.2857L6.85714 15.5714ZM6.85714 13.8571L8.57143 13.8571L8.57143 15.5714L6.85714 15.5714L6.85714 13.8571ZM6.85714 12.1429L8.57143 12.1429L8.57143 13.8571L6.85714 13.8571L6.85714 12.1429ZM8.57143 12.1429L10.2857 12.1429L10.2857 13.8571L8.57143 13.8571L8.57143 12.1429ZM8.57143 13.8571L10.2857 13.8571L10.2857 15.5714L8.57143 15.5714L8.57143 13.8571ZM8.57143 10.4286L10.2857 10.4286L10.2857 12.1429L8.57143 12.1429L8.57143 10.4286ZM6.85714 10.4286L8.57143 10.4286L8.57143 12.1429L6.85714 12.1429L6.85714 10.4286ZM6.85714 5.28572L8.57143 5.28572L8.57143 7L6.85714 7L6.85714 5.28572ZM8.57143 5.28572L10.2857 5.28572L10.2857 7L8.57143 7L8.57143 5.28572ZM8.57143 7L10.2857 7L10.2857 8.71429L8.57143 8.71429L8.57143 7ZM8.57143 8.71429L10.2857 8.71429L10.2857 10.4286L8.57143 10.4286L8.57143 8.71429ZM6.85714 7L8.57143 7L8.57143 8.71429L6.85714 8.71429L6.85714 7ZM6.85714 8.71429L8.57143 8.71429L8.57143 10.4286L6.85714 10.4286L6.85714 8.71429ZM5.14285 17.2857L6.85714 17.2857L6.85714 19L5.14285 19L5.14285 17.2857ZM3.42857 17.2857L5.14285 17.2857L5.14285 19L3.42857 19L3.42857 17.2857ZM3.42857 19L5.14285 19L5.14285 20.7143L3.42857 20.7143L3.42857 19ZM1.71428 19L3.42857 19L3.42857 20.7143L1.71428 20.7143L1.71428 19ZM1.71428 17.2857L3.42857 17.2857L3.42857 19L1.71428 19L1.71428 17.2857ZM1.71428 20.7143L3.42857 20.7143L3.42857 22.4286L1.71428 22.4286L1.71428 20.7143ZM-3.6218e-06 20.7143L1.71428 20.7143L1.71428 22.4286L-3.92154e-06 22.4286L-3.6218e-06 20.7143ZM-3.32207e-06 19L1.71428 19L1.71428 20.7143L-3.6218e-06 20.7143L-3.32207e-06 19ZM5.14285 13.8571L6.85714 13.8571L6.85714 15.5714L5.14285 15.5714L5.14285 13.8571ZM3.42857 12.1429L5.14285 12.1429L5.14285 13.8571L3.42857 13.8571L3.42857 12.1429ZM24 17.2857L22.2857 17.2857L22.2857 15.5714L24 15.5714L24 17.2857ZM24 19L22.2857 19L22.2857 17.2857L24 17.2857L24 19ZM22.2857 19L20.5714 19L20.5714 17.2857L22.2857 17.2857L22.2857 19ZM22.2857 17.2857L20.5714 17.2857L20.5714 15.5714L22.2857 15.5714L22.2857 17.2857ZM22.2857 15.5714L20.5714 15.5714L20.5714 13.8571L22.2857 13.8571L22.2857 15.5714ZM22.2857 13.8571L20.5714 13.8571L20.5714 12.1429L22.2857 12.1429L22.2857 13.8571ZM22.2857 12.1429L20.5714 12.1429L20.5714 10.4286L22.2857 10.4286L22.2857 12.1429ZM24 12.1429L22.2857 12.1429L22.2857 10.4286L24 10.4286L24 12.1429ZM24 13.8571L22.2857 13.8571L22.2857 12.1429L24 12.1429L24 13.8571ZM24 15.5714L22.2857 15.5714L22.2857 13.8571L24 13.8571L24 15.5714ZM24 10.4286L22.2857 10.4286L22.2857 8.71429L24 8.71429L24 10.4286ZM22.2857 10.4286L20.5714 10.4286L20.5714 8.71429L22.2857 8.71429L22.2857 10.4286ZM22.2857 8.71429L20.5714 8.71429L20.5714 7L22.2857 7L22.2857 8.71429ZM22.2857 7L20.5714 7L20.5714 5.28572L22.2857 5.28572L22.2857 7ZM24 7L22.2857 7L22.2857 5.28572L24 5.28572L24 7ZM24 8.71429L22.2857 8.71429L22.2857 7L24 7L24 8.71429ZM15.4286 7L13.7143 7L13.7143 5.28572L15.4286 5.28572L15.4286 7ZM13.7143 7L12 7L12 5.28572L13.7143 5.28572L13.7143 7ZM13.7143 8.71429L12 8.71429L12 7L13.7143 7L13.7143 8.71429ZM13.7143 10.4286L12 10.4286L12 8.71429L13.7143 8.71429L13.7143 10.4286ZM13.7143 12.1429L12 12.1429L12 10.4286L13.7143 10.4286L13.7143 12.1429ZM13.7143 13.8571L12 13.8571L12 12.1429L13.7143 12.1429L13.7143 13.8571ZM13.7143 15.5714L12 15.5714L12 13.8571L13.7143 13.8571L13.7143 15.5714ZM13.7143 17.2857L12 17.2857L12 15.5714L13.7143 15.5714L13.7143 17.2857ZM15.4286 13.8571L13.7143 13.8571L13.7143 12.1429L15.4286 12.1429L15.4286 13.8571ZM15.4286 12.1429L13.7143 12.1429L13.7143 10.4286L15.4286 10.4286L15.4286 12.1429ZM15.4286 10.4286L13.7143 10.4286L13.7143 8.71429L15.4286 8.71429L15.4286 10.4286ZM15.4286 8.71429L13.7143 8.71429L13.7143 7L15.4286 7L15.4286 8.71429ZM15.4286 15.5714L13.7143 15.5714L13.7143 13.8571L15.4286 13.8571L15.4286 15.5714ZM20.5714 17.2857L18.8571 17.2857L18.8571 15.5714L20.5714 15.5714L20.5714 17.2857ZM18.8571 17.2857L17.1429 17.2857L17.1429 15.5714L18.8571 15.5714L18.8571 17.2857ZM17.1429 17.2857L15.4286 17.2857L15.4286 15.5714L17.1429 15.5714L17.1429 17.2857ZM17.1429 19L15.4286 19L15.4286 17.2857L17.1429 17.2857L17.1429 19ZM15.4286 19L13.7143 19L13.7143 17.2857L15.4286 17.2857L15.4286 19ZM15.4286 17.2857L13.7143 17.2857L13.7143 15.5714L15.4286 15.5714L15.4286 17.2857ZM18.8571 19L17.1429 19L17.1429 17.2857L18.8571 17.2857L18.8571 19ZM25.7187 1.85715L27.433 1.85715L27.433 3.57143L25.7187 3.57143L25.7187 1.85715ZM27.433 1.85715L29.1473 1.85715L29.1473 3.57143L27.433 3.57143L27.433 1.85715ZM27.433 3.57143L29.1473 3.57143L29.1473 5.28572L27.433 5.28572L27.433 3.57143ZM27.433 5.28572L29.1473 5.28572L29.1473 7.00001L27.433 7L27.433 5.28572ZM27.433 7L29.1473 7.00001L29.1473 8.71429L27.433 8.71429L27.433 7ZM25.7187 7L27.433 7L27.433 8.71429L25.7187 8.71429L25.7187 7ZM25.7187 5.28572L27.433 5.28572L27.433 7L25.7187 7L25.7187 5.28572ZM25.7187 3.57143L27.433 3.57143L27.433 5.28572L25.7187 5.28572L25.7187 3.57143ZM25.7187 8.71429L27.433 8.71429L27.433 10.4286L25.7187 10.4286L25.7187 8.71429ZM25.7187 10.4286L27.433 10.4286L27.433 12.1429L25.7187 12.1429L25.7187 10.4286ZM25.7187 12.1429L27.433 12.1429L27.433 13.8571L25.7187 13.8571L25.7187 12.1429ZM25.7187 13.8571L27.433 13.8571L27.433 15.5714L25.7187 15.5714L25.7187 13.8571ZM25.7187 15.5714L27.433 15.5714L27.433 17.2857L25.7187 17.2857L25.7187 15.5714ZM25.7187 17.2857L27.433 17.2857L27.433 19L25.7187 19L25.7187 17.2857ZM27.433 17.2857L29.1473 17.2857L29.1473 19L27.433 19L27.433 17.2857ZM27.433 15.5714L29.1473 15.5714L29.1473 17.2857L27.433 17.2857L27.433 15.5714ZM27.433 13.8571L29.1473 13.8571L29.1473 15.5714L27.433 15.5714L27.433 13.8571ZM27.433 12.1429L29.1473 12.1429L29.1473 13.8571L27.433 13.8571L27.433 12.1429ZM27.433 10.4286L29.1473 10.4286L29.1473 12.1429L27.433 12.1429L27.433 10.4286ZM27.433 8.71429L29.1473 8.71429L29.1473 10.4286L27.433 10.4286L27.433 8.71429ZM29.1473 10.4286L30.8616 10.4286L30.8616 12.1429L29.1473 12.1429L29.1473 10.4286ZM30.8616 10.4286L32.5759 10.4286L32.5759 12.1429L30.8616 12.1429L30.8616 10.4286ZM30.8616 8.71429L32.5759 8.71429L32.5759 10.4286L30.8616 10.4286L30.8616 8.71429ZM32.5759 8.71429L34.2902 8.71429L34.2902 10.4286L32.5759 10.4286L32.5759 8.71429ZM32.5759 7.00001L34.2902 7.00001L34.2902 8.71429L32.5759 8.71429L32.5759 7.00001ZM32.5759 5.28572L34.2902 5.28572L34.2902 7.00001L32.5759 7.00001L32.5759 5.28572ZM34.2902 5.28572L36.0045 5.28572L36.0045 7.00001L34.2902 7.00001L34.2902 5.28572ZM34.2902 7.00001L36.0045 7.00001L36.0045 8.71429L34.2902 8.71429L34.2902 7.00001ZM30.8616 12.1429L32.5759 12.1429L32.5759 13.8571L30.8616 13.8571L30.8616 12.1429ZM32.5759 12.1429L34.2902 12.1429L34.2902 13.8571L32.5759 13.8571L32.5759 12.1429ZM34.2902 13.8571L36.0045 13.8571L36.0045 15.5714L34.2902 15.5714L34.2902 13.8571ZM32.5759 13.8571L34.2902 13.8571L34.2902 15.5714L32.5759 15.5714L32.5759 13.8571ZM32.5759 15.5714L34.2902 15.5714L34.2902 17.2857L32.5759 17.2857L32.5759 15.5714ZM34.2902 15.5714L36.0045 15.5714L36.0045 17.2857L34.2902 17.2857L34.2902 15.5714ZM34.2902 17.2857L36.0045 17.2857L36.0045 19L34.2902 19L34.2902 17.2857ZM32.5759 17.2857L34.2902 17.2857L34.2902 19L32.5759 19L32.5759 17.2857ZM49.7187 17.2857L48.0045 17.2857L48.0045 15.5714L49.7187 15.5714L49.7187 17.2857ZM49.7187 19L48.0045 19L48.0045 17.2857L49.7187 17.2857L49.7187 19ZM48.0045 19L46.2902 19L46.2902 17.2857L48.0045 17.2857L48.0045 19ZM48.0045 17.2857L46.2902 17.2857L46.2902 15.5714L48.0045 15.5714L48.0045 17.2857ZM48.0045 15.5714L46.2902 15.5714L46.2902 13.8572L48.0045 13.8572L48.0045 15.5714ZM48.0045 13.8572L46.2902 13.8572L46.2902 12.1429L48.0045 12.1429L48.0045 13.8572ZM48.0045 12.1429L46.2902 12.1429L46.2902 10.4286L48.0045 10.4286L48.0045 12.1429ZM49.7187 12.1429L48.0045 12.1429L48.0045 10.4286L49.7187 10.4286L49.7187 12.1429ZM49.7187 13.8572L48.0045 13.8572L48.0045 12.1429L49.7187 12.1429L49.7187 13.8572ZM49.7187 15.5714L48.0045 15.5714L48.0045 13.8572L49.7187 13.8572L49.7187 15.5714ZM49.7187 10.4286L48.0045 10.4286L48.0045 8.71429L49.7187 8.71429L49.7187 10.4286ZM48.0045 10.4286L46.2902 10.4286L46.2902 8.71429L48.0045 8.71429L48.0045 10.4286ZM48.0045 8.71429L46.2902 8.71429L46.2902 7.00001L48.0045 7.00001L48.0045 8.71429ZM48.0045 7.00001L46.2902 7.00001L46.2902 5.28572L48.0045 5.28572L48.0045 7.00001ZM49.7187 7.00001L48.0045 7.00001L48.0045 5.28572L49.7187 5.28572L49.7187 7.00001ZM49.7187 8.71429L48.0045 8.71429L48.0045 7.00001L49.7187 7.00001L49.7187 8.71429ZM41.1473 7.00001L39.433 7.00001L39.433 5.28572L41.1473 5.28572L41.1473 7.00001ZM39.433 7.00001L37.7187 7.00001L37.7187 5.28572L39.433 5.28572L39.433 7.00001ZM39.433 8.71429L37.7187 8.71429L37.7187 7.00001L39.433 7.00001L39.433 8.71429ZM39.433 10.4286L37.7187 10.4286L37.7187 8.71429L39.433 8.71429L39.433 10.4286ZM39.433 12.1429L37.7187 12.1429L37.7187 10.4286L39.433 10.4286L39.433 12.1429ZM39.433 13.8571L37.7187 13.8571L37.7187 12.1429L39.433 12.1429L39.433 13.8571ZM39.433 15.5714L37.7187 15.5714L37.7187 13.8571L39.433 13.8571L39.433 15.5714ZM39.433 17.2857L37.7187 17.2857L37.7187 15.5714L39.433 15.5714L39.433 17.2857ZM41.1473 13.8572L39.433 13.8571L39.433 12.1429L41.1473 12.1429L41.1473 13.8572ZM41.1473 12.1429L39.433 12.1429L39.433 10.4286L41.1473 10.4286L41.1473 12.1429ZM41.1473 10.4286L39.433 10.4286L39.433 8.71429L41.1473 8.71429L41.1473 10.4286ZM41.1473 8.71429L39.433 8.71429L39.433 7.00001L41.1473 7.00001L41.1473 8.71429ZM41.1473 15.5714L39.433 15.5714L39.433 13.8571L41.1473 13.8572L41.1473 15.5714ZM46.2902 17.2857L44.5759 17.2857L44.5759 15.5714L46.2902 15.5714L46.2902 17.2857ZM44.5759 17.2857L42.8616 17.2857L42.8616 15.5714L44.5759 15.5714L44.5759 17.2857ZM42.8616 17.2857L41.1473 17.2857L41.1473 15.5714L42.8616 15.5714L42.8616 17.2857ZM42.8616 19L41.1473 19L41.1473 17.2857L42.8616 17.2857L42.8616 19ZM41.1473 19L39.433 19L39.433 17.2857L41.1473 17.2857L41.1473 19ZM41.1473 17.2857L39.433 17.2857L39.433 15.5714L41.1473 15.5714L41.1473 17.2857ZM44.5759 19L42.8616 19L42.8616 17.2857L44.5759 17.2857L44.5759 19Z" fill="#F4C014"/>
</svg>
