<svg width="100" height="100" viewBox="0 0 100 100" fill="none" xmlns="http://www.w3.org/2000/svg">
<rect width="100" height="100" rx="18" fill="#FFF5DC"/>
<path d="M30.875 19H37.625V25.75H30.875V19ZM37.625 19L44.375 19V25.75L37.625 25.75V19ZM37.625 25.75L44.375 25.75V32.5L37.625 32.5V25.75ZM37.625 32.5L44.375 32.5V39.25L37.625 39.25V32.5ZM37.625 39.25L44.375 39.25L44.375 46L37.625 46V39.25ZM30.875 32.5H37.625V39.25H30.875V32.5ZM30.875 25.75H37.625V32.5H30.875L30.875 25.75ZM30.875 39.25H37.625V46H30.875V39.25ZM30.875 46H37.625V52.75L30.875 52.75V46ZM37.625 46L44.375 46V52.75H37.625V46ZM37.625 52.75H44.375V59.5H37.625L37.625 52.75ZM44.375 52.75H51.125V59.5H44.375V52.75ZM44.375 59.5H51.125V66.25H44.375V59.5ZM51.125 59.5H57.875V66.25H51.125V59.5ZM57.875 59.5H64.625V66.25H57.875V59.5ZM57.875 52.75H64.625V59.5H57.875V52.75ZM57.875 46H64.625V52.75H57.875V46ZM64.625 46L71.375 46V52.75H64.625V46ZM64.625 52.75H71.375V59.5H64.625V52.75ZM64.625 39.25L71.375 39.25V46L64.625 46V39.25ZM57.875 39.25H64.625V46H57.875L57.875 39.25ZM57.875 19H64.625V25.75H57.875V19ZM64.625 19L71.375 19V25.75L64.625 25.75V19ZM64.625 25.75L71.375 25.75V32.5H64.625V25.75ZM64.625 32.5H71.375V39.25L64.625 39.25V32.5ZM57.875 25.75H64.625V32.5H57.875V25.75ZM57.875 32.5H64.625V39.25H57.875V32.5ZM51.125 66.25H57.875V73H51.125V66.25ZM44.375 66.25H51.125V73H44.375V66.25ZM44.375 73H51.125V79.75H44.375V73ZM37.625 73H44.375V79.75H37.625L37.625 73ZM37.625 66.25H44.375V73H37.625V66.25ZM37.625 79.75H44.375L44.375 86.5H37.625V79.75ZM30.875 79.75H37.625V86.5H30.875V79.75ZM30.875 73H37.625L37.625 79.75H30.875L30.875 73ZM51.125 52.75H57.875V59.5H51.125V52.75ZM44.375 46H51.125V52.75H44.375V46Z" fill="#F4C014"/>
</svg>
