<svg width="92" height="38" viewBox="0 0 92 38" fill="none" xmlns="http://www.w3.org/2000/svg">
<path d="M6.28059e-06 6.32143L3.16072 6.32143L3.16072 9.48214L5.72795e-06 9.48214L6.28059e-06 6.32143ZM3.16072 6.32143L6.32143 6.32143L6.32143 9.48214L3.16072 9.48214L3.16072 6.32143ZM3.16072 9.48214L6.32143 9.48214L6.32143 12.6429L3.16072 12.6429L3.16072 9.48214ZM3.16072 12.6429L6.32143 12.6429L6.32143 15.8036L3.16072 15.8036L3.16072 12.6429ZM3.16072 15.8036L6.32143 15.8036L6.32143 18.9643L3.16072 18.9643L3.16072 15.8036ZM5.17531e-06 12.6429L3.16072 12.6429L3.16072 15.8036L4.62268e-06 15.8036L5.17531e-06 12.6429ZM5.72795e-06 9.48214L3.16072 9.48214L3.16072 12.6429L5.17531e-06 12.6429L5.72795e-06 9.48214ZM4.62268e-06 15.8036L3.16072 15.8036L3.16072 18.9643L4.07004e-06 18.9643L4.62268e-06 15.8036ZM4.07004e-06 18.9643L3.16072 18.9643L3.16072 22.125L3.5174e-06 22.125L4.07004e-06 18.9643ZM3.16072 18.9643L6.32143 18.9643L6.32143 22.125L3.16072 22.125L3.16072 18.9643ZM3.16072 22.125L6.32143 22.125L6.32143 25.2857L3.16072 25.2857L3.16072 22.125ZM6.32143 22.125L9.48215 22.125L9.48215 25.2857L6.32143 25.2857L6.32143 22.125ZM6.32143 25.2857L9.48215 25.2857L9.48215 28.4464L6.32143 28.4464L6.32143 25.2857ZM9.48215 25.2857L12.6429 25.2857L12.6429 28.4464L9.48215 28.4464L9.48215 25.2857ZM12.6429 25.2857L15.8036 25.2857L15.8036 28.4464L12.6429 28.4464L12.6429 25.2857ZM12.6429 22.125L15.8036 22.125L15.8036 25.2857L12.6429 25.2857L12.6429 22.125ZM12.6429 18.9643L15.8036 18.9643L15.8036 22.125L12.6429 22.125L12.6429 18.9643ZM15.8036 18.9643L18.9643 18.9643L18.9643 22.125L15.8036 22.125L15.8036 18.9643ZM15.8036 22.125L18.9643 22.125L18.9643 25.2857L15.8036 25.2857L15.8036 22.125ZM15.8036 15.8036L18.9643 15.8036L18.9643 18.9643L15.8036 18.9643L15.8036 15.8036ZM12.6429 15.8036L15.8036 15.8036L15.8036 18.9643L12.6429 18.9643L12.6429 15.8036ZM12.6429 6.32143L15.8036 6.32143L15.8036 9.48214L12.6429 9.48214L12.6429 6.32143ZM15.8036 6.32143L18.9643 6.32143L18.9643 9.48214L15.8036 9.48214L15.8036 6.32143ZM15.8036 9.48214L18.9643 9.48214L18.9643 12.6429L15.8036 12.6429L15.8036 9.48214ZM15.8036 12.6429L18.9643 12.6429L18.9643 15.8036L15.8036 15.8036L15.8036 12.6429ZM12.6429 9.48214L15.8036 9.48214L15.8036 12.6429L12.6429 12.6429L12.6429 9.48214ZM12.6429 12.6429L15.8036 12.6429L15.8036 15.8036L12.6429 15.8036L12.6429 12.6429ZM9.48215 28.4464L12.6429 28.4464L12.6429 31.6071L9.48214 31.6071L9.48215 28.4464ZM6.32143 28.4464L9.48215 28.4464L9.48214 31.6071L6.32143 31.6071L6.32143 28.4464ZM6.32143 31.6071L9.48214 31.6071L9.48214 34.7679L6.32143 34.7679L6.32143 31.6071ZM3.16072 31.6071L6.32143 31.6071L6.32143 34.7679L3.16072 34.7679L3.16072 31.6071ZM3.16072 28.4464L6.32143 28.4464L6.32143 31.6071L3.16072 31.6071L3.16072 28.4464ZM3.16072 34.7679L6.32143 34.7679L6.32143 37.9286L3.16072 37.9286L3.16072 34.7679ZM1.30685e-06 34.7679L3.16072 34.7679L3.16072 37.9286L7.54218e-07 37.9286L1.30685e-06 34.7679ZM1.85949e-06 31.6071L3.16072 31.6071L3.16072 34.7679L1.30685e-06 34.7679L1.85949e-06 31.6071ZM9.48215 22.125L12.6429 22.125L12.6429 25.2857L9.48215 25.2857L9.48215 22.125ZM6.32143 18.9643L9.48215 18.9643L9.48215 22.125L6.32143 22.125L6.32143 18.9643ZM44.25 28.4464L41.0893 28.4464L41.0893 25.2857L44.25 25.2857L44.25 28.4464ZM44.25 31.6071L41.0893 31.6071L41.0893 28.4464L44.25 28.4464L44.25 31.6071ZM41.0893 31.6071L37.9286 31.6071L37.9286 28.4464L41.0893 28.4464L41.0893 31.6071ZM41.0893 28.4464L37.9286 28.4464L37.9286 25.2857L41.0893 25.2857L41.0893 28.4464ZM41.0893 25.2857L37.9286 25.2857L37.9286 22.125L41.0893 22.125L41.0893 25.2857ZM41.0893 22.125L37.9286 22.125L37.9286 18.9643L41.0893 18.9643L41.0893 22.125ZM41.0893 18.9643L37.9286 18.9643L37.9286 15.8036L41.0893 15.8036L41.0893 18.9643ZM44.25 18.9643L41.0893 18.9643L41.0893 15.8036L44.25 15.8036L44.25 18.9643ZM44.25 22.125L41.0893 22.125L41.0893 18.9643L44.25 18.9643L44.25 22.125ZM44.25 25.2857L41.0893 25.2857L41.0893 22.125L44.25 22.125L44.25 25.2857ZM44.25 15.8036L41.0893 15.8036L41.0893 12.6429L44.25 12.6429L44.25 15.8036ZM41.0893 15.8036L37.9286 15.8036L37.9286 12.6429L41.0893 12.6429L41.0893 15.8036ZM41.0893 12.6429L37.9286 12.6429L37.9286 9.48215L41.0893 9.48215L41.0893 12.6429ZM41.0893 9.48215L37.9286 9.48215L37.9286 6.32143L41.0893 6.32143L41.0893 9.48215ZM44.25 9.48215L41.0893 9.48215L41.0893 6.32143L44.25 6.32143L44.25 9.48215ZM44.25 12.6429L41.0893 12.6429L41.0893 9.48215L44.25 9.48215L44.25 12.6429ZM28.4464 9.48215L25.2857 9.48214L25.2857 6.32143L28.4464 6.32143L28.4464 9.48215ZM25.2857 9.48214L22.125 9.48214L22.125 6.32143L25.2857 6.32143L25.2857 9.48214ZM25.2857 12.6429L22.125 12.6429L22.125 9.48214L25.2857 9.48214L25.2857 12.6429ZM25.2857 15.8036L22.125 15.8036L22.125 12.6429L25.2857 12.6429L25.2857 15.8036ZM25.2857 18.9643L22.125 18.9643L22.125 15.8036L25.2857 15.8036L25.2857 18.9643ZM25.2857 22.125L22.125 22.125L22.125 18.9643L25.2857 18.9643L25.2857 22.125ZM25.2857 25.2857L22.125 25.2857L22.125 22.125L25.2857 22.125L25.2857 25.2857ZM25.2857 28.4464L22.125 28.4464L22.125 25.2857L25.2857 25.2857L25.2857 28.4464ZM28.4464 22.125L25.2857 22.125L25.2857 18.9643L28.4464 18.9643L28.4464 22.125ZM28.4464 18.9643L25.2857 18.9643L25.2857 15.8036L28.4464 15.8036L28.4464 18.9643ZM28.4464 15.8036L25.2857 15.8036L25.2857 12.6429L28.4464 12.6429L28.4464 15.8036ZM28.4464 12.6429L25.2857 12.6429L25.2857 9.48214L28.4464 9.48215L28.4464 12.6429ZM28.4464 25.2857L25.2857 25.2857L25.2857 22.125L28.4464 22.125L28.4464 25.2857ZM37.9286 28.4464L34.7679 28.4464L34.7679 25.2857L37.9286 25.2857L37.9286 28.4464ZM34.7679 28.4464L31.6071 28.4464L31.6071 25.2857L34.7679 25.2857L34.7679 28.4464ZM31.6071 28.4464L28.4464 28.4464L28.4464 25.2857L31.6071 25.2857L31.6071 28.4464ZM31.6071 31.6071L28.4464 31.6071L28.4464 28.4464L31.6071 28.4464L31.6071 31.6071ZM28.4464 31.6071L25.2857 31.6071L25.2857 28.4464L28.4464 28.4464L28.4464 31.6071ZM28.4464 28.4464L25.2857 28.4464L25.2857 25.2857L28.4464 25.2857L28.4464 28.4464ZM34.7679 31.6071L31.6071 31.6071L31.6071 28.4464L34.7679 28.4464L34.7679 31.6071ZM47.419 6.5789e-06L50.5797 7.13153e-06L50.5797 3.16072L47.419 3.16072L47.419 6.5789e-06ZM50.5797 7.13153e-06L53.7404 7.68417e-06L53.7404 3.16072L50.5797 3.16072L50.5797 7.13153e-06ZM50.5797 3.16072L53.7404 3.16072L53.7404 6.32143L50.5797 6.32143L50.5797 3.16072ZM50.5797 6.32143L53.7404 6.32143L53.7404 9.48215L50.5797 9.48215L50.5797 6.32143ZM50.5797 9.48215L53.7404 9.48215L53.7404 12.6429L50.5797 12.6429L50.5797 9.48215ZM47.419 9.48215L50.5797 9.48215L50.5797 12.6429L47.419 12.6429L47.419 9.48215ZM47.419 6.32143L50.5797 6.32143L50.5797 9.48215L47.419 9.48215L47.419 6.32143ZM47.419 3.16072L50.5797 3.16072L50.5797 6.32143L47.419 6.32143L47.419 3.16072ZM47.419 12.6429L50.5797 12.6429L50.5797 15.8036L47.4189 15.8036L47.419 12.6429ZM47.4189 15.8036L50.5797 15.8036L50.5797 18.9643L47.4189 18.9643L47.4189 15.8036ZM47.4189 18.9643L50.5797 18.9643L50.5797 22.125L47.4189 22.125L47.4189 18.9643ZM47.4189 22.125L50.5797 22.125L50.5797 25.2857L47.4189 25.2857L47.4189 22.125ZM47.4189 25.2857L50.5797 25.2857L50.5797 28.4464L47.4189 28.4464L47.4189 25.2857ZM47.4189 28.4464L50.5797 28.4464L50.5797 31.6071L47.4189 31.6071L47.4189 28.4464ZM50.5797 28.4464L53.7404 28.4464L53.7404 31.6071L50.5797 31.6071L50.5797 28.4464ZM50.5797 25.2857L53.7404 25.2857L53.7404 28.4464L50.5797 28.4464L50.5797 25.2857ZM50.5797 22.125L53.7404 22.125L53.7404 25.2857L50.5797 25.2857L50.5797 22.125ZM50.5797 18.9643L53.7404 18.9643L53.7404 22.125L50.5797 22.125L50.5797 18.9643ZM50.5797 15.8036L53.7404 15.8036L53.7404 18.9643L50.5797 18.9643L50.5797 15.8036ZM50.5797 12.6429L53.7404 12.6429L53.7404 15.8036L50.5797 15.8036L50.5797 12.6429ZM53.7404 15.8036L56.9011 15.8036L56.9011 18.9643L53.7404 18.9643L53.7404 15.8036ZM56.9011 15.8036L60.0618 15.8036L60.0618 18.9643L56.9011 18.9643L56.9011 15.8036ZM56.9011 12.6429L60.0618 12.6429L60.0618 15.8036L56.9011 15.8036L56.9011 12.6429ZM60.0618 12.6429L63.2225 12.6429L63.2225 15.8036L60.0618 15.8036L60.0618 12.6429ZM60.0618 9.48215L63.2225 9.48215L63.2225 12.6429L60.0618 12.6429L60.0618 9.48215ZM60.0618 6.32144L63.2225 6.32144L63.2225 9.48215L60.0618 9.48215L60.0618 6.32144ZM63.2225 6.32144L66.3832 6.32144L66.3832 9.48215L63.2225 9.48215L63.2225 6.32144ZM63.2225 9.48215L66.3832 9.48215L66.3832 12.6429L63.2225 12.6429L63.2225 9.48215ZM56.9011 18.9643L60.0618 18.9643L60.0618 22.125L56.9011 22.125L56.9011 18.9643ZM60.0618 18.9643L63.2225 18.9643L63.2225 22.125L60.0618 22.125L60.0618 18.9643ZM63.2225 22.125L66.3832 22.125L66.3832 25.2857L63.2225 25.2857L63.2225 22.125ZM60.0618 22.125L63.2225 22.125L63.2225 25.2857L60.0618 25.2857L60.0618 22.125ZM60.0618 25.2857L63.2225 25.2857L63.2225 28.4464L60.0618 28.4464L60.0618 25.2857ZM63.2225 25.2857L66.3832 25.2857L66.3832 28.4464L63.2225 28.4464L63.2225 25.2857ZM63.2225 28.4464L66.3832 28.4464L66.3832 31.6072L63.2225 31.6072L63.2225 28.4464ZM60.0618 28.4464L63.2225 28.4464L63.2225 31.6072L60.0618 31.6072L60.0618 28.4464ZM91.6689 28.4464L88.5082 28.4464L88.5082 25.2857L91.6689 25.2857L91.6689 28.4464ZM91.6689 31.6072L88.5082 31.6072L88.5082 28.4464L91.6689 28.4464L91.6689 31.6072ZM88.5082 31.6072L85.3475 31.6072L85.3475 28.4464L88.5082 28.4464L88.5082 31.6072ZM88.5082 28.4464L85.3475 28.4464L85.3475 25.2857L88.5082 25.2857L88.5082 28.4464ZM88.5082 25.2857L85.3475 25.2857L85.3475 22.125L88.5082 22.125L88.5082 25.2857ZM88.5082 22.125L85.3475 22.125L85.3475 18.9643L88.5082 18.9643L88.5082 22.125ZM88.5082 18.9643L85.3475 18.9643L85.3475 15.8036L88.5082 15.8036L88.5082 18.9643ZM91.6689 18.9643L88.5082 18.9643L88.5082 15.8036L91.6689 15.8036L91.6689 18.9643ZM91.6689 22.125L88.5082 22.125L88.5082 18.9643L91.6689 18.9643L91.6689 22.125ZM91.6689 25.2857L88.5082 25.2857L88.5082 22.125L91.6689 22.125L91.6689 25.2857ZM91.6689 15.8036L88.5082 15.8036L88.5082 12.6429L91.669 12.6429L91.6689 15.8036ZM88.5082 15.8036L85.3475 15.8036L85.3475 12.6429L88.5082 12.6429L88.5082 15.8036ZM88.5082 12.6429L85.3475 12.6429L85.3475 9.48216L88.5082 9.48216L88.5082 12.6429ZM88.5082 9.48216L85.3475 9.48216L85.3475 6.32144L88.5082 6.32144L88.5082 9.48216ZM91.669 9.48216L88.5082 9.48216L88.5082 6.32144L91.669 6.32144L91.669 9.48216ZM91.669 12.6429L88.5082 12.6429L88.5082 9.48216L91.669 9.48216L91.669 12.6429ZM75.8654 9.48215L72.7047 9.48215L72.7047 6.32144L75.8654 6.32144L75.8654 9.48215ZM72.7047 9.48215L69.544 9.48215L69.544 6.32144L72.7047 6.32144L72.7047 9.48215ZM72.7047 12.6429L69.544 12.6429L69.544 9.48215L72.7047 9.48215L72.7047 12.6429ZM72.7047 15.8036L69.5439 15.8036L69.544 12.6429L72.7047 12.6429L72.7047 15.8036ZM72.7047 18.9643L69.5439 18.9643L69.5439 15.8036L72.7047 15.8036L72.7047 18.9643ZM72.7047 22.125L69.5439 22.125L69.5439 18.9643L72.7047 18.9643L72.7047 22.125ZM72.7047 25.2857L69.5439 25.2857L69.5439 22.125L72.7047 22.125L72.7047 25.2857ZM72.7047 28.4464L69.5439 28.4464L69.5439 25.2857L72.7047 25.2857L72.7047 28.4464ZM75.8654 22.125L72.7047 22.125L72.7047 18.9643L75.8654 18.9643L75.8654 22.125ZM75.8654 18.9643L72.7047 18.9643L72.7047 15.8036L75.8654 15.8036L75.8654 18.9643ZM75.8654 15.8036L72.7047 15.8036L72.7047 12.6429L75.8654 12.6429L75.8654 15.8036ZM75.8654 12.6429L72.7047 12.6429L72.7047 9.48215L75.8654 9.48215L75.8654 12.6429ZM75.8654 25.2857L72.7047 25.2857L72.7047 22.125L75.8654 22.125L75.8654 25.2857ZM85.3475 28.4464L82.1868 28.4464L82.1868 25.2857L85.3475 25.2857L85.3475 28.4464ZM82.1868 28.4464L79.0261 28.4464L79.0261 25.2857L82.1868 25.2857L82.1868 28.4464ZM79.0261 28.4464L75.8654 28.4464L75.8654 25.2857L79.0261 25.2857L79.0261 28.4464ZM79.0261 31.6072L75.8654 31.6072L75.8654 28.4464L79.0261 28.4464L79.0261 31.6072ZM75.8654 31.6072L72.7047 31.6072L72.7047 28.4464L75.8654 28.4464L75.8654 31.6072ZM75.8654 28.4464L72.7047 28.4464L72.7047 25.2857L75.8654 25.2857L75.8654 28.4464ZM82.1868 31.6072L79.0261 31.6072L79.0261 28.4464L82.1868 28.4464L82.1868 31.6072Z" fill="#F4C014"/>
</svg>
